<svg width="24" height="24" viewBox="0 0 24 24" fill="none" xmlns="http://www.w3.org/2000/svg">
<path fill-rule="evenodd" clip-rule="evenodd" d="M20.0853 16.9316C20.5303 12.6549 20.5303 8.34358 20.0853 4.06689C19.9266 2.54184 18.1682 1.76932 16.9377 2.68404L12.8341 5.73445C11.5836 6.66397 10.067 7.16591 8.50889 7.16591H4.67969C3.98933 7.16591 3.42969 7.72556 3.42969 8.41591V12.5826C3.42969 13.2729 3.98933 13.8326 4.67969 13.8326H5.30397L4.45861 16.9875C4.36441 17.3391 4.53622 17.7075 4.86608 17.8613L8.54723 19.5779C8.74815 19.6716 8.98023 19.6716 9.18116 19.5779C9.38208 19.4842 9.53126 19.3065 9.58864 19.0923L10.8513 14.3799C10.8647 14.3298 10.8728 14.2796 10.8757 14.2298C11.5732 14.4707 12.2343 14.8182 12.8341 15.264L16.9377 18.3145C18.1682 19.2292 19.9266 18.4567 20.0853 16.9316ZM18.5933 4.22212C19.0276 8.39561 19.0276 12.6029 18.5933 16.7764C18.555 17.145 18.13 17.3317 17.8326 17.1106L13.7289 14.0602C12.2198 12.9384 10.3893 12.3326 8.50888 12.3326L4.92969 12.3326L4.92969 8.66591H8.50888C10.3893 8.66591 12.2197 8.06012 13.7289 6.93829L17.8326 3.88788C18.13 3.66679 18.555 3.85351 18.5933 4.22212ZM9.43664 13.8922C9.13024 13.8526 8.82039 13.8326 8.50888 13.8326H6.85688L6.07038 16.7678L8.37109 17.8407L9.40245 13.9917C9.41166 13.9573 9.42313 13.9241 9.43664 13.8922Z" fill="#0E8565"/>
</svg>
