<svg width="48" height="48" viewBox="0 0 48 48" fill="none" xmlns="http://www.w3.org/2000/svg">
<path fill-rule="evenodd" clip-rule="evenodd" d="M16.0415 25.2574C16.0415 20.862 19.6046 17.2989 24 17.2989C28.3954 17.2989 31.9585 20.862 31.9585 25.2574C31.9585 29.6528 28.3954 33.2159 24 33.2159C19.6046 33.2159 16.0415 29.6528 16.0415 25.2574ZM24 20.4823C21.3628 20.4823 19.2249 22.6202 19.2249 25.2574C19.2249 27.8946 21.3628 30.0325 24 30.0325C26.6372 30.0325 28.7751 27.8946 28.7751 25.2574C28.7751 22.6202 26.6372 20.4823 24 20.4823Z" fill="black"/>
<path fill-rule="evenodd" clip-rule="evenodd" d="M21.0631 9.87091C18.8449 9.87091 17.0468 11.6691 17.0468 13.8872C17.0468 15.3006 15.9618 16.4772 14.5531 16.5916L9.82128 16.9759C8.89221 17.0513 8.12814 17.7384 7.95473 18.6542C7.00237 23.684 6.93136 28.8411 7.74486 33.8952L7.95125 35.1774C8.14617 36.3884 9.14286 37.3097 10.3654 37.409L14.4876 37.7438C20.8188 38.258 27.1812 38.258 33.5124 37.7438L37.6346 37.409C38.8571 37.3097 39.8538 36.3884 40.0488 35.1774L40.2551 33.8952C41.0686 28.8411 40.9976 23.684 40.0453 18.6542C39.8719 17.7384 39.1078 17.0513 38.1787 16.9759L33.4469 16.5916C32.0382 16.4772 30.9532 15.3006 30.9532 13.8872C30.9532 11.6691 29.1551 9.87091 26.9369 9.87091H21.0631ZM13.8763 13.4527C14.1009 9.67871 17.2327 6.6875 21.0631 6.6875H26.9369C30.7673 6.6875 33.8991 9.67871 34.1237 13.4527L38.4364 13.8029C40.7941 13.9944 42.7331 15.7379 43.1731 18.062C44.1941 23.4542 44.2702 28.9828 43.3981 34.4011L43.1917 35.6833C42.7638 38.3416 40.576 40.364 37.8923 40.582L33.7701 40.9168C27.2674 41.4449 20.7326 41.4449 14.2299 40.9168L10.1077 40.582C7.42405 40.364 5.23617 38.3416 4.80829 35.6833L4.6019 34.4011C3.72979 28.9828 3.80592 23.4542 4.82689 18.062C5.26695 15.7379 7.20593 13.9944 9.56359 13.8029L13.8763 13.4527Z" fill="black"/>
</svg>
