<svg width="24" height="24" viewBox="0 0 24 24" fill="none" xmlns="http://www.w3.org/2000/svg">
<path fill-rule="evenodd" clip-rule="evenodd" d="M7.19878 6.69856C7.19555 6.80517 7.21535 6.90712 7.25368 6.99965C5.84078 8.20449 4.94482 9.99762 4.94482 12C4.94482 14.0024 5.84078 15.7955 7.25368 17.0004C7.21535 17.0929 7.19555 17.1948 7.19878 17.3014L7.2839 20.1112C7.30371 20.7654 7.73762 21.3345 8.36323 21.5268C10.4161 22.1577 12.6111 22.1577 14.664 21.5268C15.2896 21.3345 15.7235 20.7654 15.7433 20.1112L15.8284 17.3014C15.8317 17.1948 15.8119 17.0929 15.7735 17.0003C16.7066 16.2046 17.4143 15.1523 17.7873 13.9526C17.9207 14.0982 18.1125 14.1896 18.3256 14.1896C18.7287 14.1896 19.0555 13.8628 19.0555 13.4597V10.5403C19.0555 10.1372 18.7287 9.81042 18.3256 9.81042C18.1125 9.81042 17.9207 9.90177 17.7873 10.0475C17.4143 8.84772 16.7066 7.7954 15.7735 6.99967C15.8119 6.90713 15.8317 6.80517 15.8284 6.69856L15.7433 3.88875C15.7235 3.23456 15.2896 2.6655 14.664 2.47322C12.6111 1.84226 10.4161 1.84226 8.36323 2.47322C7.73762 2.6655 7.30371 3.23456 7.2839 3.88875L7.19878 6.69856ZM14.2351 3.86852C12.4617 3.32346 10.5655 3.32346 8.79208 3.86852C8.7636 3.87727 8.74385 3.90318 8.74295 3.93295L8.67813 6.07305C9.53651 5.66165 10.4981 5.43124 11.5136 5.43124C12.529 5.43124 13.4907 5.66166 14.3491 6.07306L14.2843 3.93295C14.2833 3.90318 14.2636 3.87728 14.2351 3.86852ZM8.74295 20.067L8.67813 17.927C9.53651 18.3384 10.4981 18.5688 11.5136 18.5688C12.529 18.5688 13.4907 18.3384 14.3491 17.927L14.2843 20.067C14.2833 20.0968 14.2636 20.1227 14.2351 20.1315C12.4617 20.6765 10.5655 20.6765 8.79208 20.1315C8.7636 20.1227 8.74385 20.0968 8.74295 20.067ZM11.5136 6.89097C8.69194 6.89097 6.40455 9.17836 6.40455 12C6.40455 14.8217 8.69194 17.109 11.5136 17.109C14.3352 17.109 16.6226 14.8217 16.6226 12C16.6226 9.17836 14.3352 6.89097 11.5136 6.89097Z" fill="#0E8565"/>
</svg>
